<?xml version="1.0" encoding="UTF-8"?>
<svg viewBox="0 0 300 300" version="1.1" xmlns="http://www.w3.org/2000/svg" xmlns:xlink="http://www.w3.org/1999/xlink">
    <!-- Generator: Sketch 41.2 (35397) - http://www.bohemiancoding.com/sketch -->
    <title>Untitled</title>
    <desc>Created with Sketch.</desc>
    <defs></defs>
    <g class="logo" stroke="none" stroke-width="1" fill="none" fill-rule="evenodd">
        <path d="M184.809173,81.5864678 L185.541299,69.9568299 C185.541299,69.9568299 185.548707,67.1778728 187.911773,69.6901516 C190.274839,72.2024305 257.717314,133.2967 259.424944,134.919745 C261.132574,136.542789 262.130883,137.566128 262.130883,140.232911 C262.130883,144.834916 261.895865,152.967311 261.895865,154.785299 C261.895865,155.4524 261.232612,155.821597 260.530819,155.282872 C259.829026,154.744148 257.820053,152.870846 257.820053,152.870846 C257.820053,152.870846 188.729599,90.672118 187.709805,89.7353739 C186.690011,88.7986297 185.284875,87.5030455 184.958069,85.9426009 C184.631264,84.3821563 184.809173,81.5864678 184.809173,81.5864678 Z" class="animated-logo_upper" fill="#FFFFFF"></path>
        <path d="M219.048339,223.947705 L219.780464,212.318068 C219.780464,212.318068 219.787872,209.53911 222.150938,212.051389 C224.514004,214.563668 291.956479,275.657938 293.664109,277.280983 C295.371739,278.904027 296.370048,279.927365 296.370048,282.594148 C296.370048,287.196153 296.13503,295.328549 296.13503,297.146536 C296.13503,297.813638 295.471778,298.182835 294.769984,297.64411 C294.068191,297.105385 292.059218,295.232083 292.059218,295.232083 C292.059218,295.232083 222.968765,233.033356 221.94897,232.096612 C220.929176,231.159867 219.52404,229.864283 219.197235,228.303839 C218.870429,226.743394 219.048339,223.947705 219.048339,223.947705 Z" class="animated-logo_lower" fill="#FFFFFF"></path>
        <path d="M184.048339,136.947705 L184.780464,125.318068 C184.780464,125.318068 184.787872,122.53911 187.150938,125.051389 C187.675151,125.608702 191.401989,129.048897 196.903386,134.083214 C211.046582,147.025624 272.132084,202.708359 285.467523,214.824972 C290.327948,219.241166 293.523049,222.148057 293.877998,222.485425 C295.585628,224.10847 296.583937,225.131808 296.583937,227.798591 C296.583937,232.400596 296.348919,240.532991 296.348919,242.350979 C296.348919,243.01808 295.685666,243.387277 294.983873,242.848552 C294.28208,242.309828 292.273107,240.436526 292.273107,240.436526 C292.273107,240.436526 287.545004,236.180048 280.544267,229.877295 C265.293625,216.147166 204.044141,160.501847 192.608014,150.199109 C189.226022,147.152293 187.120834,145.254479 186.94897,145.096612 C185.929176,144.159867 184.52404,142.864283 184.197235,141.303839 C183.870429,139.743394 184.048339,136.947705 184.048339,136.947705 Z" class="animated-logo_middle" fill="#FFFFFF"></path>
    </g>
</svg>
